<svg version="1.2" xmlns="http://www.w3.org/2000/svg" viewBox="0 0 1800 1800" width="1800" height="1800">
	<title>11044-ai</title>
	<style>
		.s0 { fill: #a4e5ff } 
		.s1 { fill: #7473e8 } 
		.s2 { fill: #e9faff } 
		.s3 { fill: #96d9c9 } 
		.s4 { fill: #55b061 } 
		.s5 { fill: #f8a492 } 
		.s6 { fill: #fe875e } 
		.s7 { fill: #f7a491 } 
		.s8 { fill: #271651 } 
		.s9 { fill: #5858c6 } 
		.s10 { fill: #f47458 } 
		.s11 { fill: #4fa65b } 
		.s12 { fill: #f6a390 } 
		.s13 { fill: #916054 } 
		.s14 { fill: #f48c7f } 
		.s15 { fill: #5f3e37 } 
		.s16 { fill: #ffffff } 
		.s17 { fill: #efefef } 
	</style>
	<g id="Layer 1">
		<g id="&lt;Group&gt;">
			<g id="&lt;Group&gt;">
				<path id="&lt;Path&gt;" class="s0" d="m684.7 465.2c-0.3 0-0.6-0.1-0.7-0.3-0.4-0.5-0.3-1.1 0.1-1.4 0.2-0.1 12.8-9.6 30.3-1.2 0.4 0.3 0.6 0.9 0.4 1.4-0.2 0.4-0.8 0.6-1.3 0.4-16.3-7.9-27.7 0.6-28.2 0.9q-0.3 0.2-0.6 0.2z"/>
			</g>
			<path id="&lt;Path&gt;" class="s1" d="m960.9 1479.9c-359-187.6-481.4-382-520.4-514h230.6c-1.3 20.7-7.5 41-17.9 59-5.1 8.4-7.8 18.2-7.8 28.2 0 30.1 24.5 54.7 54.6 54.7 30.2 0 54.7-24.6 54.7-54.7 0-10-2.7-19.8-7.9-28.3-10.3-17.9-16.5-38.2-17.8-58.9h231.9v214.8l4.2-0.4c20.6-1.8 40.9-8.3 58.8-18.6 7.3-4.5 15.7-6.8 24.3-6.8 25.8 0 46.9 21 46.9 46.8 0 25.9-21.1 46.9-46.9 46.9-8.6 0-17-2.3-24.3-6.8-17.9-10.4-38.2-16.8-58.8-18.6l-4.2-0.4z"/>
			<g id="&lt;Group&gt;">
				<path id="&lt;Path&gt;" class="s2" d="m968.7 1231.4c18.1 2.2 35.4 8 51.2 17.2 8.5 5.1 18.3 7.8 28.3 7.8 30.1 0 54.7-24.5 54.7-54.7 0-30.1-24.6-54.6-54.7-54.6-10 0-19.8 2.7-28.3 7.8-15.8 9.2-33.1 15-51.2 17.2v-206.2h273l0.2-3.8c0.8-26.7-5.8-53-19.2-76.1-4.4-7.4-6.8-15.8-6.8-24.4 0-25.8 21.1-46.8 46.9-46.8 25.8 0 46.9 21 46.9 46.8 0 8.6-2.4 17-6.8 24.3-13.4 23.2-20 49.5-19.1 76.2l0.1 3.8h205.2c-39 132-161.4 326.4-520.4 514z"/>
				<path id="&lt;Compound Path&gt;" fill-rule="evenodd" class="s3" d="m967.7 1481.5v-251.2l1.1 0.1c18.3 2.2 35.7 8.1 51.6 17.3 8.4 5.1 18 7.7 27.8 7.7 29.6 0 53.7-24.1 53.7-53.7 0-29.6-24.1-53.7-53.7-53.7-9.8 0-19.5 2.7-27.8 7.8-16 9.2-33.3 15-51.6 17.2l-1.1 0.2v-208.3h273.1l0.1-2.9c0.9-26.5-5.7-52.6-19-75.6-4.5-7.4-6.9-16-6.9-24.8 0-26.3 21.4-47.8 47.8-47.8 26.4 0 47.9 21.5 47.9 47.8 0 8.8-2.4 17.4-6.9 24.8-13.4 23-19.9 49.1-19.1 75.6l0.1 2.9h205.6l-0.4 1.2c-38.6 130.8-160.3 326.2-520.9 514.7zm2-249v245.7c357.7-187.2 479.2-381.2 518.1-511.4h-204.8l-0.2-4.7c-0.9-26.9 5.8-53.4 19.3-76.7 4.3-7.2 6.6-15.4 6.6-23.8 0-25.3-20.6-45.9-45.9-45.9-25.3 0-45.9 20.6-45.9 45.9 0 8.4 2.3 16.6 6.7 23.8 13.5 23.3 20.1 49.8 19.3 76.7l-0.2 4.7h-273v204.1c17.6-2.3 34.3-7.9 49.7-16.9 8.7-5.2 18.6-8 28.8-8 30.7 0 55.7 25 55.7 55.7 0 30.7-25 55.6-55.7 55.6-10.2 0-20.1-2.7-28.7-7.9-15.5-9-32.2-14.7-49.8-16.9z"/>
			</g>
			<path id="&lt;Path&gt;" class="s4" d="m700 1100c-25.8 0-46.8-21.1-46.8-46.9 0-8.6 2.3-17 6.7-24.3 11.8-20.3 18.4-43.3 19.2-66.7l0.1-4.1h-240.9c-10.2-36.7-15.3-73.7-15.3-109.9 0-84.1 26.6-162.8 74.9-221.5 49.8-60.4 118.7-93.7 194-93.7 92.4 0 160.7 38.5 201.7 70.8 40.6 31.9 63.3 64.2 67.3 70.1v99.3c-16.5-2.6-32.2-8.1-46.8-16.5-8.4-5.1-18.2-7.9-28.2-7.9-30.2 0-54.7 24.6-54.7 54.7 0 30.2 24.5 54.7 54.7 54.7 10 0 19.8-2.7 28.3-7.9 14.5-8.4 30.2-13.9 46.7-16.5v124.3h-240l0.1 4.1c0.8 23.4 7.4 46.4 19.1 66.7 4.5 7.3 6.8 15.7 6.8 24.3 0 25.8-21 46.9-46.9 46.9z"/>
			<g id="&lt;Group&gt;">
				<g id="&lt;Group&gt;">
					<path id="&lt;Path&gt;" class="s5" d="m693.2 512.1c-11 1.8-10.4 3.6-11.8 3.8-1.7 0.2-21.6-9.8-21.6-9.8 0 0-58.8-28.9-61.9-30.6l-42.5-53.3-32.7 15.1c0 0 47.7 56.6 50.8 59.1 3 2.5 87.4 32 94.7 34.9 0 0 7.4 6.7 12.2 10.8 4.8 4 11.2 5.7 12.7 6.6 0.2 0.1 5.5 2.9 13 4.5 6.4 1.4 1-2.9 1-2.9 0 0-11.3-4.8-10.8-5.7 0.5-0.7 6.5 2.3 13.6 4 1.8 0.4 3.6 0.8 5.3 1.1 4.3 1 6.3-1.5 1.9-3.2-1.6-0.7-4.2-1.6-6.1-2-2.1-0.4-3.9-1.6-5.6-2.2-3.4-1.3-5.9-2.2-5.7-2.3 0.1-0.1-0.3-0.9 1.6-0.5 2.4 0.4 7.1 2.5 10.6 2.9 2 0.3 6.1 1 6.1 1 0 0 7.3 0.7 7.4-0.3 0.1-2.3-4.4-3.5-7.2-3.4-1.7-0.9-6.1-1.6-6.1-1.6 0 0-8.5-3.3-8-4.6 0.2-0.5 5.4 0.3 10.8 0.7 5.8 0.4 9.9 0.4 10.2-0.7 0.5-1.8-4.1-2.5-4.1-2.5 0 0-4-0.5-5.3-0.8-1.6-0.4-6.1-1.8-6.1-1.8 0 0-15.6-5.7-15-6.9 0.5-1.1 3.1-3.5 4.2-3.5 1.1 0 3.1 1.1 4.2 1.1 1.1 0 3.4-0.2 3.6-1.6 0.2-1.4-5.9-4.2-5.9-4.2 0 0-4.3-1.7-7.5-1.2z"/>
					<path id="&lt;Path&gt;" class="s0" d="m585 455.2c0 0-10.6 9.6-15.1 12.8-3.6 2.6-21.5 11.2-21.5 11.2 0 0-17.7-27.2-25.5-40.8-9.4-16.5-16-41-13.7-41.7 6.2-1.8 14.8-3 22.8 0.7 27.5 12.5 53 57.8 53 57.8z"/>
					<path id="&lt;Path&gt;" class="s6" d="m682.9 526.3c4.7 0.7 9.6-0.2 11.7-4.5 0.4 5.1-7.3 7.7-11.7 4.5z"/>
				</g>
				<path id="&lt;Path&gt;" class="s7" d="m411.5 868.9c0 0-1.2 20.8-1.2 20.8-0.4 2.6-2.1 9.2-2.1 11.6 0 9 40-7.7 31.1-11.7-0.9-0.3-5.1-3.1-5.4-6.1-0.4-4.8-1.4-14.3-1.4-14.3z"/>
				<path id="&lt;Path&gt;" class="s8" d="m439.2 889.5c0 0-9.5 2.8-14.3 3.5-4.8 0.7-11.1-5.1-14.5-3.6-3.8 1.8-3.7 17.3-3.7 17.3 0 0 50.5 4.4 64.7-0.2 5.6-1.8-13-10.5-32.2-17z"/>
				<path id="&lt;Path&gt;" class="s7" d="m347.1 867.6c0 0-1.2 20.8-1.2 20.9-0.4 2.6-2.1 9.1-2.1 11.5 0 9 40-7.6 31.1-11.6-0.9-0.4-6.4-5.2-6.6-8.2-0.5-4.7-0.2-12.3-0.2-12.3z"/>
				<path id="&lt;Path&gt;" class="s8" d="m374.8 888.3c0 0-9.4 2.7-14.3 3.4-4.8 0.7-11.1-5.1-14.5-3.5-3.8 1.7-3.9 17.2-3.9 17.2 0 0 50 2.1 64.9-0.1 5.8-0.9-13-10.6-32.2-17z"/>
				<path id="&lt;Path&gt;" class="s9" d="m356.2 540.1c0 0-6.8 35-4.1 61.5 2.8 26.6 3 121 3 121l-10.5 151 25 0.6c0 0 29.7-151 29.2-147.1-0.6 3.9 9.9-106.2 9.9-106.2l-35.4-84.2z"/>
				<path id="&lt;Path&gt;" class="s1" d="m365.7 517.4c0 0-30.8 32.3-19.4 67.6 4.6 14.2 47.5 149.6 48.1 160.7 0.5 11.1 14.5 133.4 14.5 133.4l29.1-0.9 6.3-136-8.3-183.3-17.7-30.9z"/>
				<path id="&lt;Path&gt;" class="s2" d="m552.4 412.6c-10-11.2-32-27.5-32-27.5 0 0-13-11.1-18.4-12.9-7.8-2.7-21.2-9.9-40.6 19.4-13.9 21-101.6 129.7-116 133.4l94 44.8c2.6-21.4 49-61.8 55.7-69.4 14.9-16.9 66.9-77.2 57.3-87.8z"/>
				<g id="&lt;Group&gt;">
					<path id="&lt;Path&gt;" class="s7" d="m548 366.7l-29.2 17.1c0 0-0.9 24.9 8.7 31.4 8 5.4 14.2-7.6 14.2-7.6 0 0 10.8-15.1 19.1-19.7 8.3-4.7-12.8-21.2-12.8-21.2z"/>
					<path id="&lt;Path&gt;" class="s10" d="m543.1 377.7c1.1 5.2 3.7 12.7 7.6 18.9 3.3-3.5 6.9-6.9 10.1-8.7 3.8-2.2 1.4-6.9-2.3-11.3-5.3-5.4-10.5-9.9-10.5-9.9l-5.6 3.3c-0.3 2.1 0.4 5.9 0.7 7.7z"/>
					<path id="&lt;Path&gt;" class="s7" d="m563.3 323.9c-0.5-0.6-24.6 29.2-21.6 43.3 3 14 17.5 26.8 27.6 23.2 11.2-3.8 32-39 24.6-56.1-7.5-17.1-30.6-10.4-30.6-10.4z"/>
					<path id="&lt;Path&gt;" class="s8" d="m589.6 314.5c-10.4-5.9-27.6-7.5-40.3-0.9-15.8 8.3-19.3 28.9-14.4 41.5 4.9 12.6-0.7 19.7-0.7 19.7l8.3-4.8c0 0 4.9-7.6 5.5-13.7 0.6-6 9.5-4.9 13.8-7.7 3.3-2.1 7.6-8.9 12.9-12.5 0 0 13.6-1.7 20.2 2.1 11.4 6.3 9.8-15.4-5.3-23.7z"/>
				</g>
				<path id="&lt;Path&gt;" class="s5" d="m636.1 556.1c-11.5-1.4-11.5-0.5-12.9-0.7-1.8-0.2-19.6-15.6-19.6-15.6 0 0-53-44.8-55.8-47.4l-29.1-64.2-38.3 5.7c0 0 35.7 75.5 38.2 78.8 2.5 3.3 81.1 49.1 87.9 53.9 0 0 6 8.7 9.9 14 3.9 5.3 10 8.7 11.4 10.1 0.2 0.2 4.9 4.4 12.1 8.1 6.1 3.1 1.7-2.6 1.7-2.6 0 0-10.4-7.9-9.7-8.6 0.6-0.5 6 4.1 12.8 7.7 1.8 0.9 3.5 1.8 5.1 2.6 4.2 2.2 6.7 0.3 2.6-2.6-1.4-1-3.8-2.7-5.7-3.7-2-1-3.6-2.6-5.1-3.7-3.2-2.2-5.3-3.6-5.2-3.7 0.3-0.1-0.2-1.1 1.6-0.2 2.3 1.1 6.6 4.5 10.1 5.9 1.9 0.8 5.9 2.7 5.9 2.7 0 0 5.9 0.7 6.2 0.4 1.2-1.9-2.4-3.3-5.1-4-1.6-1.4-5.9-3.2-5.9-3.2 0 0-7.8-5.7-7-6.7 0.3-0.5 4.9 2.7 10.5 4.8 6.5 2.4 9.6 1.1 10.1 0 0.9-1.5-3-2.5-3-2.5 0 0-5.4-1.3-6.7-2-1.5-0.8-18.7-13.8-17.9-14.8 0.8-0.9 3.5-0.9 4.6-0.6 1.1 0.3 3 1.1 4.1 1.4 1.1 0.3 3.1-0.9 3.5-2.2 0.5-1.3-3.6-3.7-3.6-3.7 0 0-4.4-3-7.7-3.4z"/>
				<path id="&lt;Path&gt;" class="s0" d="m486.5 465.1c0 0 11-3.5 18.1-6.7 4.7-2.2 25.4-12.4 25.4-12.4 0 0-8.9-37.5-14.9-51-22.2-49.5-47.3-15.4-50.7-7.4-7.6 17.8 22.1 77.5 22.1 77.5z"/>
			</g>
			<path id="&lt;Path&gt;" class="s9" d="m1291.5 958c-0.1-23.9 6.1-47.4 18.1-68.1 5.2-8.5 7.9-18.3 7.9-28.3 0-30.1-24.5-54.6-54.7-54.6-30.1 0-54.7 24.5-54.7 54.6 0 10 2.8 19.8 7.9 28.3 12 20.7 18.2 44.2 18.1 68.1h-265.4v-133.2l-4.4 0.5c-19.2 2.4-37.4 8.5-54.1 18.2-7.3 4.4-15.7 6.8-24.3 6.8-25.8 0-46.9-21.1-46.9-46.9 0-25.8 21.1-46.9 46.9-46.9 8.6 0 17 2.4 24.2 6.8 16.8 9.7 35 15.8 54.2 18.2l4.4 0.5v-108.2c3.9-5.9 26.6-38.2 67.2-70.1 41.1-32.3 109.4-70.8 201.7-70.8 75.3 0 144.2 33.3 194 93.7 48.4 58.7 75 137.4 75 221.5 0 36.2-5.2 73.2-15.3 109.9z"/>
			<g id="&lt;Group&gt;">
				<path id="&lt;Path&gt;" class="s1" d="m1493 1131.4h-79.6c-3.9 0-7.1-3.2-7.1-7.1 0-4 3.2-7.2 7.1-7.2h79.6c3.9 0 7.1 3.2 7.1 7.2 0 3.9-3.2 7.1-7.1 7.1z"/>
				<path id="&lt;Path&gt;" class="s9" d="m1500.8 1142.7h-95.2c-3.9 0-7.1-3.2-7.1-7.2 0-3.9 3.2-7.1 7.1-7.1h95.2c3.9 0 7.1 3.2 7.1 7.1 0 4-3.2 7.2-7.1 7.2z"/>
				<g id="&lt;Group&gt;">
					<path id="&lt;Path&gt;" class="s7" d="m1221.8 1617.4c0 0-7.4 7.2-7.5 9.9-0.2 2.7-0.7 31.1 2.3 33.8 3 2.7 11.8 4.5 9 7.5-2.2 2.3-18.6 1.8-29.5 1.2-3.2-0.2-7.1-25.9-8.4-29.6-1.8-5.5-8.4-17.5-6.7-21.3 0.8-1.8 6.8-6.1 12.2-9.7 5.8-3.7 11.3-12.1 11.3-12.1z"/>
					<path id="&lt;Path&gt;" class="s7" d="m1319.8 1635.2c0 0-6.6 18.8-6.6 18.8-0.5 3-2.4 10.3-2.4 13 0 10.2 45.2-8.6 35.1-13.1-1-0.4-3.8-3.7-4.1-7.1-0.5-5.3 3.8-12 3.8-12z"/>
					<g id="&lt;Group&gt;">
						<path id="&lt;Path&gt;" class="s9" d="m1382.1 1278.8l16.4 42.4c0 0 10.7 101.1 4.4 161.6-2.6 25.3-58.8 160.8-58.8 160.8l-28-4 37.5-160.4-13.8-61.4-19.5-121.3z"/>
						<path id="&lt;Path&gt;" class="s1" d="m1305.1 1281l-14.1 47.2-21.3 142.4-72.2 133.2c0 0 10.8 16.7 22.5 19.3l102.5-134.7 55.5-168.5-2-37.4z"/>
					</g>
					<path id="&lt;Path&gt;" class="s5" d="m1520.5 1202.4c-8.4 3.9-7.5 5.4-8.6 5.9-1.3 0.5-19-5.1-19-5.1 0 0-52.2-16.2-55-17.2l-43.9-42.3-23.1 20.5c0 0 48.7 44.6 51.6 46.4 2.9 1.8 75.5 13.5 81.8 14.8 0 0 7.2 5 11.8 7.9 4.6 3 9.9 3.3 11.3 3.9 0.2 0 5 1.7 11.2 1.8 5.4 0.1 0.3-3.1 0.3-3.1 0 0-10-2.3-9.7-3.2 0.2-0.7 5.6 0.9 11.5 1.1 1.6 0 3.1 0.1 4.5 0.1 3.6 0.1 4.6-2.7 0.8-3.5-1.3-0.3-3.6-0.7-5.2-0.7-1.7 0-3.4-0.7-4.8-1-3-0.5-5.1-0.9-5-1 0.1-0.2-0.4-0.8 1.2-0.8 1.9-0.1 6.1 1 8.9 0.7 1.7-0.1 5.1-0.2 5.1-0.2 0 0 5.5-1 5.5-1.3 0.2-2.2-3.9-2.9-6.1-2.3-1.5-0.5-5.1-0.3-5.1-0.3 0 0-7.4-1.5-7.2-2.8 0.1-1.1 18.3-1.6 18.3-3.7 0.1-1.8-5.4-1.9-5.4-1.9 0 0-3.3 0.2-4.4 0.1-1.3 0-5.2-0.5-5.2-0.5 0 0-13.4-2.4-13.2-3.6 0.2-1.2 1.8-3.9 2.7-4.1 0.9-0.3 2.6 0.4 3.5 0.2 0.9-0.2 1.9-1.4 1.7-2.7-0.1-1.4-4.6-2.4-4.6-2.4 0 0-3.7-0.8-6.2 0.3z"/>
					<path id="&lt;Path&gt;" class="s9" d="m1409.8 1154.4l-22 29.9c0 0-19.4-23.3-28.1-35-10.6-14.2-22.2-33.8-20.5-34.9 4.8-3 10.9-6.1 17.9-4.3 24.5 6.4 52.7 44.3 52.7 44.3z"/>
					<path id="&lt;Path&gt;" class="s8" d="m1193.6 1609.1c0 0 15.4 47.2 22 49.5 1.8 0.6 11.7 3.2 13.2 6.9q0.1 0.2 0.1 0.4c0.6 2.4-1.4 4.6-3.9 4.6h-31.3c0 0-4.5-21.3-6.3-30.6 0 0-9.3-22.8-8.2-24.9 1-2 14.4-5.9 14.4-5.9z"/>
					<path id="&lt;Path&gt;" class="s8" d="m1308.2 1670.4l5.1-16.6c0 0 11 4.7 16.4 3.9 5.4-0.8 16-3.9 16-3.9 21.7 7.2 39.5 10.8 36.3 16.6z"/>
					<path id="&lt;Path&gt;" class="s6" d="m1513.8 1216.9c4.1-0.1 7.3-1.9 9.6-5.8-0.9 5.5-6 7.7-9.6 5.8z"/>
					<path id="&lt;Path&gt;" class="s8" d="m1310.7 1109.2c0 0-26.3 2.8-35 5.9-7.3 2.5-17.3 26.5-17.3 26.5 0 0 39.8 114.8 38.2 135.4-1.6 20.5-6 50.9-6 50.9 0 0 78.3 5 107.9-6.7 0 0-9.4-46.6-9.4-58.8 0-12.2-5.2-134.3-9-140.7-3.7-6.4-11.2-10.1-25.5-13.2-14.3-3.1-43.9 0.7-43.9 0.7z"/>
					<path id="&lt;Path&gt;" class="s7" d="m1315.9 1075.1l-5.2 34.1c0 0 15.7 18.1 27 14.6 9.6-3 7.1-16.4 7.1-16.4 0 0-5.2-19.3-3.7-29 1.6-9.7-25.2-3.3-25.2-3.3z"/>
					<path id="&lt;Path&gt;" class="s6" d="m1341.1 1078.4c1.6-9.7-25.2-3.3-25.2-3.3l-0.5 2.8c0.8 1.9 1.8 3.5 3 4.8 5.9 6.4 15.3 10.2 23.4 10.5-0.8-5.2-1.3-10.8-0.7-14.8z"/>
					<g id="&lt;Group&gt;">
						<path id="&lt;Path&gt;" class="s7" d="m1311.5 1026.7c-0.8-0.3-6.1 38.9 4 49.7 10.1 10.8 29.7 14.3 36.8 5.8 7.8-9.4 7.4-51.5-8.3-62.6-15.7-11.1-32.5 7.1-32.5 7.1z"/>
						<path id="&lt;Path&gt;" class="s8" d="m1338 998.6c-12.1 2.5-19.9 9.9-22.8 13-5.5 0.6-13 3.7-20.7 16.4-9.5 15.6-2.5 32.9 8.5 41.4 11.1 8.5 10.9 18.3 10.9 18.3l1.8-5.1c1.3-3.8 1.8-7.9 1.4-11.9-0.3-2.4-0.8-5-1.8-7.2-2.7-5.7 5.7-9.4 8.1-14.2 1.8-3.6 1.8-11.9 4.7-17.9l3.4-4.6c0 0 7.8-6.1 15.5-4.4 7.7 1.8 6.6-26.9-9-23.8z"/>
						<path id="&lt;Path&gt;" class="s7" d="m1322.8 1056.3c0.1 4.8-2.1 8.7-4.9 8.8-2.7 0-5.1-3.8-5.1-8.6-0.1-4.8 2.1-8.7 4.9-8.8 2.7 0 5.1 3.8 5.1 8.6z"/>
					</g>
					<path id="&lt;Path&gt;" class="s11" d="m1358.3 1275.1h157.9v-137h-157.9z"/>
					<path id="&lt;Path&gt;" class="s4" d="m1456.6 1275.1h137v-137h-137z"/>
					<path id="&lt;Path&gt;" class="s5" d="m1453.9 1272.2c-8.1-2.3-100.4-26-103.9-28.3-3.5-2.2-60.5-55.5-60.5-55.5l32.7-17.3 51 50.3c3.5 1.4 68.9 26.3 68.9 26.3 0 0 20 8.2 21.7 7.8 1.5-0.3 2.8-1.6 14.1-4.1 3.3-0.7 8 0.6 8 0.6 0 0 5.8 1.8 5.7 3.2 0 1.4-1.4 2.4-2.6 2.5-1.1 0.1-3.3-0.9-4.5-0.8-1.1 0-3.6 2.6-4 3.8-0.3 0.7 15.9 12.5 16.7 14.1 0.4 0.4 19.8-0.9 19 0.3-0.1 2-2.4 1.5-2.4 1.7-0.3 5.3-27.7 9.3-29.6 8.8-3.2-0.9-30.3-13.4-30.3-13.4z"/>
					<path id="&lt;Path&gt;" class="s9" d="m1307.1 1212.9l37.4-24.5c0 0-43.4-65.7-58.1-72.5-10.2-4.7-22.9 2.4-27.9 19.6-5.4 18.8 48.6 77.4 48.6 77.4z"/>
				</g>
				<path id="&lt;Path&gt;" class="s1" d="m1579.9 1169.1l-6.4 6.1v-35.6c0-3.6-3-6.6-6.6-6.6h-55.5c-3.7 0-6.7 3-6.7 6.6v41.4l-6.9-11.9-23.4 6.8c0 0 18.8 35.8 30.3 41.7 15.3 7.8 53.4 7.6 68.8 0 9.4-4.7 25.4-33.3 25.4-33.3z"/>
				<path id="&lt;Path&gt;" class="s9" d="m1558.8 1221.8c-1.1-12.3-9.4-21.8-19.5-21.8-10 0-18.3 9.6-19.4 22 12 1.9 26.9 1.8 38.9-0.2z"/>
			</g>
			<g id="&lt;Group&gt;">
				<path id="&lt;Path&gt;" class="s4" d="m1231.2 223.7c-5.7 9.6-15.8 9.2-26.6 11.9-7.3 1.8-11.8 13.8-11.1 22.8 1.8 23-16.2 19.1-30.6 28.6-34.7 22.7-12.3 82.1 25.5 85.9 7.6 0.8 16.2-0.5 23-4.2 5.4-3.1 9.2-6.9 15.3-9.1 12.7-4.5 27-6.1 37.2-15.9 14.5-14 2.5-20.9 6.2-31.1 3.8-10.2 20-5.1 23.1-26.3 3.3-22.9-0.3-42.6-8.8-54-13.9-18.8-38.5-20.1-47.5-14.4-2.6 1.7-4.5 3.7-5.7 5.8z"/>
				<path id="&lt;Path&gt;" class="s12" d="m1387.3 266.6c-1.4-2.8-13.4 5.6-16 4-2.7-1.6 10.7-15.1 9.3-17.4-2.5-4.4-15.5 13.8-16.8 11.9-1.3-1.9 11.2-21.4 6.8-22.5-4.5-1-10.9 21.6-13.2 20.1-2.3-1.4 7.8-20.5 3.5-24.3-2.3-2.1-13.3 34.7-17.2 36.2-4 1.6-8.5-14.5-12.2-13.9-3.7 0.7 12.3 29.6 11.5 31.8-0.8 2.3-15.4 49.5-24.1 63.8-5.1-2.5-10.2-5-15-7.4-2 10.9-2.2 22.5-4.7 33.2 16.7 7.4 31.7 12.7 36.5 10.9 14.8-5.4 22.1-77.3 24.5-90.7 2.4-13.4 8.7-16.1 12.3-23.1 3.6-7.1 16.1-9.7 14.8-12.6z"/>
				<path id="&lt;Path&gt;" class="s9" d="m1263.5 327.2l-24.8 25c0 0 32.7 17.7 60.5 29.9 2.5-10.7 2.7-22.3 4.7-33.2-23-11.6-40.4-21.7-40.4-21.7z"/>
				<path id="&lt;Path&gt;" class="s7" d="m1418 604.7c10.9 12.9 18.8 26.2 19.6 27.9 0.5 0.8 0.6 5.3 1 6.2 16.9 11.1 34.9 8 49.6 3.4-9.7-4.2-23.2-9-24.5-11-2-3.3-11.2-15-20.7-36-7.6 7.5-14.7 6.7-25 9.5z"/>
				<path id="&lt;Path&gt;" class="s8" d="m1437.8 633.2c-1.5 6.7-0.9 20.5 0.5 20.8 1.6 0.3 58.4 8.7 65.6 1.4 4.4-4.4-3.9-7.7-15.7-13.2-14.7 4.6-49.8-4.4-50.4-9z"/>
				<path id="&lt;Path&gt;" class="s7" d="m1422.8 656c10.9 12.8 18.8 26.2 19.7 27.8 0.4 0.8 0.5 5.4 0.9 6.2 17 11.1 34.9 8 49.6 3.5-9.7-4.2-23.2-9.1-24.4-11.1-2.1-3.2-11.3-15-20.8-36-7.6 7.5-14.7 6.7-25 9.6z"/>
				<path id="&lt;Path&gt;" class="s8" d="m1442.6 684.4c-1.4 6.8-0.9 20.5 0.5 20.8 1.6 0.3 58.4 8.7 65.6 1.4 4.4-4.3-3.8-7.7-15.7-13.1-14.7 4.5-49.8-4.5-50.4-9.1z"/>
				<path id="&lt;Path&gt;" class="s11" d="m1450.6 604.1l-29.5 10.3-159-131.9c0 0 38.8-0.5 108.3 6.6 20.8 2.1 80.2 115 80.2 115z"/>
				<path id="&lt;Path&gt;" class="s4" d="m1202.4 471.6c0 0-4.2 11.1-4.7 17.2-1.8 19.7 8.4 44.6 19.3 48.5 11.3 3.9 80.3 23.1 121.8 17.3l90.1 120 30-13.1-70.3-123.6c0 0-13.6-21.2-24.7-26.2-11.2-5-101.8-29.2-101.8-29.2l-14-20.4z"/>
				<path id="&lt;Path&gt;" class="s1" d="m1275.7 347.1c-5-9.2-10.1-16.5-10.1-16.5-5.2-9.2-18.5-13.9-18.5-13.9 0 0-4.5 0.1-9.6 0.3-0.3 0.9-0.7 1.5-1 1.7-1.9 1.5-13-0.4-20.1 4.5-23.9 20.5-17.3 120.1-15.4 151.6l58.1 2.1c0 0 5.5-69.1 20.3-86.5 10.3-12.1 3.7-29.7-3.7-43.3z"/>
				<path id="&lt;Path&gt;" class="s7" d="m1242.9 283c0 0-4 28.7-6.8 35.6-2.8 7 15.3 21.9 30.4 26.4 15.2 4.5-4.6-15.4-3.9-22.8 0.6-7.5 3.3-42.7 3.3-42.7z"/>
				<path id="&lt;Path&gt;" class="s10" d="m1265.2 289.6c0.4-5.8 0.7-10.1 0.7-10.1l-23 3.5c0 0-0.6 3.4-1.3 8.1 9.4 5.5 17.8 3.8 23.6-1.5z"/>
				<path id="&lt;Path&gt;" class="s7" d="m1250.1 230.6c0 0-9.1 2.1-14.7 10.7-5.6 8.6-9.5 33.9 9 45.7 18.5 11.8 32.9-4.9 33.1-21.2 0.3-16.3-3.2-38-27.4-35.2z"/>
				<path id="&lt;Path&gt;" class="s7" d="m1281.7 260.7c-1.5 3.9-4.7 6.4-6.9 5.5-2.3-1-2.9-4.9-1.3-8.8 1.6-4 4.7-6.4 7-5.5 2.2 0.9 2.8 4.9 1.2 8.8z"/>
				<path id="&lt;Path&gt;" class="s7" d="m1235.1 263.9c1.3 4.3 0.1 8.4-2.7 9.3-2.9 1-6.3-1.7-7.6-6-1.4-4.2-0.1-8.4 2.7-9.3 2.9-0.9 6.3 1.8 7.6 6z"/>
				<g id="&lt;Group&gt;">
					<path id="&lt;Path&gt;" class="s8" d="m1311.7 358c0 0 6.2 0.1 7.9 0 10.2-1 6 14 6 14 0 0-5-4.8-7-4.8-2 0-4.7 0.5-4.7 0.5z"/>
					<path id="&lt;Path&gt;" class="s9" d="m1346.2 458.6c0 0 4.2 6.5 8.9 3.6 4.7-3 12.8-8.7 14.3-4.4 1.6 4.3 1.3 7.9-0.4 8.7-1.6 0.9-13.8 7.5-20.4 7.9-6.6 0.5-12-5.8-12-5.8z"/>
					<path id="&lt;Path&gt;" class="s8" d="m1356 473.3c-0.2-5.1-1.2-10.9-4-15.7-7.3-12.5-37.7-46.1-42.2-48.7-4.5-2.6-1.3-12.7-1.3-12.7l-18-9.8-9.4-5.1c0 0-21.3 32.6-23 35.6-1.6 3.1 1.3 13.2-0.9 19.3-2.1 6.2 0.1 39.8-2.9 43.5-2.4 2.4-4.7 2.7-5.4 4.1-0.3 0.7-0.8 1.8 0.1 2.9 2.5 3.1 15 0.5 15 0.5 0.1-0.2 5.2-7.4 4.4-11.7-0.8-4.2 1.7-29.2 3.5-29.2 1.5 0 8.7 11.1 11.6 13.2q0.4 0.4 0.7 0.4c2.1 0 15.4 2.9 18.4 5.9 0.8 0.8 1.1 2.9 1.1 5.5 0 1.8-0.1 3.8-0.2 5.8-0.3 3.7-0.8 7.6-1.2 10.1q4.8 0 9.5 0c2.6-4.7 8.1-8 14.5-8 6 0 11.2 2.9 14 7.2 5.3-0.3 7.4 2.3 11.9 1.8 0.3-1.5 3.9-12.8 3.8-14.9z"/>
					<path id="&lt;Path&gt;" class="s4" d="m1313.5 359.4c-2-1.9-4.9-2.7-7.6-2.3-1.5 0.2-3.6 0.4-6.6 0.1-6.6-0.6-13.4-0.1-17.7 4.2-4.3 4.3-4.8 19.5 0 26.7 4.8 7.2 18.4 9 19.6 12.2 1.2 3.3 13 4.8 14.7 0.9 0 0 1.3 0.8 3.2 0.3 4.4-1.3 6-5.6 4.4-10.3-1.5-4.7-8.2-14.4-7-23 0.6-4.1-1.1-6.9-3-8.8z"/>
					<path id="&lt;Path&gt;" class="s8" d="m1310.7 388.8c-0.8 0.8-0.8 2-0.1 2.8 1.4 1.7 3.9 4.3 5.6 5.3 2.6 1.5 5.1-4.8 5.1-7.7 0-2.7-6-5.2-10.6-0.4z"/>
					<path id="&lt;Path&gt;" class="s9" d="m1308 434.5c-0.1-1.4-1.2-2.5-2.6-2.4q0 0-0.1 0c-7 0.4-11.8 6.8-10.9 13.8q0.1 0.6 0 1c-0.3 1.2-2.4 5.4-4.6 9.6q6.3 1.6 12.6 3.2c3.1-5.4 6.2-10.4 6.2-10.4z"/>
					<path id="&lt;Path&gt;" class="s9" d="m1284 467.1c0 0-4.8 14.4-6.1 19.8 3.8 2.2 6.2-2.1 14.9 0.3 0.2-1.7 3.3-12.3 3.3-14.9 0-1.3 3.9-7.3 7-12.6 0.2-0.3 0-0.8-0.4-1-3.8-1-8.7-3-12.5-4.1-0.5-0.1-1 0.1-1.2 0.6-2.7 5.2-5 11.9-5 11.9z"/>
					<path id="&lt;Path&gt;" class="s9" d="m1274.3 485.5c1-2 3.8-4.4 7.9-4.4 4.1 0 10.6 6.1 10.6 6.1 0 0-1.9 1.9-7.3 1.9-5.3 0-13 0.4-11.2-3.6z"/>
					<path id="&lt;Path&gt;" class="s9" d="m1298.4 484.7c1-2.1 3.8-4.5 7.9-4.5 1.5 0 3.4 0.9 5.1 2 2.8 1.7 1.7 6-1.6 6q-0.1 0-0.2 0c-5.3 0-13 0.4-11.2-3.5z"/>
					<path id="&lt;Path&gt;" class="s9" d="m1336.9 484.7c1.1-2.1 4.5-4.5 9.4-4.5 1.9 0 4.1 0.9 6.2 2 3.4 1.7 2 6-1.9 6q-0.1 0-0.2 0c-6.5 0-15.7 0.4-13.5-3.5z"/>
					<path id="&lt;Path&gt;" class="s8" d="m1295.7 362.6c-2-2-0.8-4.3 0.3-5.6-5.5-0.1-10.8 0.9-14.4 4.4-4.3 4.3-4.8 19.5 0 26.7 4.3 6.4 15.8 8.5 18.9 11.3 3.3-5.6-1.7-10.3-2.9-12.9-1.2-2.6 5.9-9.2 6.7-14.5 0.8-5.2-5.7-6.5-8.6-9.4z"/>
					<path id="&lt;Path&gt;" class="s4" d="m1286.4 358.4c0 0-4.3 1.5-9.6-0.4-5.4-1.9-10.7 7.6-10.7 7.6 0 0 4.9 10.8 8.9 13.4 4 2.6 11.4-20.6 11.4-20.6z"/>
				</g>
				<path id="&lt;Path&gt;" class="s7" d="m1354.5 449.8c0-2.4-7.3-9.3-10.8-8.1-3.4 1-17.2 9.7-17.2 9.7l-61.1-14.4c0 0-15.4-35.1-16.9-65.3-12.8 1.7-21.5 4.9-32.5 11 5.3 28.9 18.3 75.7 32.6 84.5 6.1 3.7 78.2-4.4 78.2-4.4 0 0 15 2.1 18.7 1.1 15.3-4.2 9-9.3 9-14.1z"/>
				<path id="&lt;Path&gt;" class="s9" d="m1248.8 339.4c-1.9-9.1-4.1-18.3-13.9-21.2-6.1-1.8-13 0-17.9 4-5.8 4.7-7.4 12.4-7.4 19.6 0.1 16.4 1.2 33.4 4.2 49.6 11.1-6.2 27.2-5.5 39.9-7.2 1.2-14.6-2.4-32.9-4.9-44.8z"/>
			</g>
			<path id="&lt;Path&gt;" class="s8" d="m753.6 288c-6.5 34.4-27.1 106.6-60.8 105.4-1.6-47.1-3.9-87.5-7.2-100.3q-1.1-4-2.6-7.7c20.9 1.8 33.5-30.1 38.4-52.6-4.3 14.2-14.1 37.1-26.8 44.8-7.3 4.3-12.6 2.1-14.6 1.5-12.2-22.6-35.2-37.8-46.3-51.3-8.8-10.8-3.1-53.9-1-67.6-3 15.9-6.3 39.1-4.9 55.3 1.7 18.3 11.1 19.5 32.7 44.1 17.4 19.4 23.4 29.8 24 104.1-1.3 0.3-3 0.6-4.8 0.6-17.7 0.4-34-16.9-43-31.9 7.1 13.7 19.7 29.2 34.6 33.9 2.7 0.8 5.5 1.3 8.4 1.5 1.6 0 3.3-0.1 4.8-0.3 0.4 6.5 2.4 134.1 0.7 216.6 5.2 0 4.2-2.4 9.4-2-0.2-22.3 0.9-105.8-1.5-179.1 39.3-1.6 55.8-74.2 60.5-115z"/>
			<g id="&lt;Group&gt;">
				<path id="&lt;Path&gt;" class="s11" d="m609.6 175.4c8 6.4 20 4.8 20 4.8l-29-23.2c0 0 1 12 9 18.4z"/>
				<path id="&lt;Path&gt;" class="s4" d="m600.6 157l29 23.2c0 0-1.1-12-9.1-18.4-8-6.4-19.9-4.8-19.9-4.8z"/>
			</g>
			<g id="&lt;Group&gt;">
				<path id="&lt;Path&gt;" class="s11" d="m744.3 388c10.2-0.4 18.2-9.4 18.2-9.4l-37.1 1.4c0 0 8.6 8.4 18.9 8z"/>
				<path id="&lt;Path&gt;" class="s4" d="m725.4 380l37.1-1.4c0 0-8.6-8.4-18.9-8-10.2 0.4-18.2 9.4-18.2 9.4z"/>
			</g>
			<g id="&lt;Group&gt;">
				<path id="&lt;Path&gt;" class="s11" d="m755 350.7c7-4.6 8.9-14.2 8.9-14.2l-25.4 16.4c0 0 9.5 2.3 16.5-2.2z"/>
				<path id="&lt;Path&gt;" class="s4" d="m738.5 352.9l25.4-16.4c0 0-9.6-2.2-16.6 2.3-7 4.5-8.8 14.1-8.8 14.1z"/>
			</g>
			<g id="&lt;Group&gt;">
				<path id="&lt;Path&gt;" class="s11" d="m718.7 349.3c2.9 7.8 11.9 11.7 11.9 11.7l-10.5-28.4c0 0-4.2 8.8-1.4 16.7z"/>
				<path id="&lt;Path&gt;" class="s4" d="m720.1 332.6l10.5 28.4c0 0 4.3-8.8 1.4-16.6-2.9-7.9-11.9-11.8-11.9-11.8z"/>
			</g>
			<g id="&lt;Group&gt;">
				<path id="&lt;Path&gt;" class="s11" d="m636.5 196.9c-6.3 4.4-7.7 13.2-7.7 13.2l22.7-15.8c0 0-8.7-1.8-15 2.6z"/>
				<path id="&lt;Path&gt;" class="s4" d="m651.5 194.3l-22.7 15.8c0 0 8.8 1.8 15.1-2.6 6.2-4.3 7.6-13.2 7.6-13.2z"/>
			</g>
			<g id="&lt;Group&gt;">
				<path id="&lt;Path&gt;" class="s11" d="m723.2 260.2c-7.7-0.6-14.3 5.4-14.3 5.4l27.5 2.2c0 0-5.6-7-13.2-7.6z"/>
				<path id="&lt;Path&gt;" class="s4" d="m736.4 267.8l-27.5-2.2c0 0 5.6 6.9 13.3 7.5 7.6 0.6 14.2-5.3 14.2-5.3z"/>
			</g>
			<g id="&lt;Group&gt;">
				<path id="&lt;Path&gt;" class="s11" d="m641.7 347c-7.6-0.6-14.3 5.4-14.3 5.4l27.6 2.2c0 0-5.7-7-13.3-7.6z"/>
				<path id="&lt;Path&gt;" class="s4" d="m655 354.6l-27.6-2.2c0 0 5.7 6.9 13.3 7.5 7.6 0.6 14.3-5.3 14.3-5.3z"/>
			</g>
			<g id="&lt;Group&gt;">
				<path id="&lt;Path&gt;" class="s11" d="m656 339.3c-2.8-7.1-11-10.5-11-10.5l10 25.8c0 0 3.8-8.2 1-15.3z"/>
				<path id="&lt;Path&gt;" class="s4" d="m655 354.6l-10-25.8c0 0-3.8 8.1-1 15.2 2.7 7.1 11 10.6 11 10.6z"/>
			</g>
			<g id="&lt;Group&gt;">
				<path id="&lt;Path&gt;" class="s11" d="m710.5 250.5c-1.7-4.6-7-6.9-7-6.9l6.2 16.6c0 0 2.5-5.2 0.8-9.7z"/>
				<path id="&lt;Path&gt;" class="s4" d="m709.7 260.2l-6.2-16.6c0 0-2.5 5.2-0.8 9.8 1.7 4.5 7 6.8 7 6.8z"/>
			</g>
			<g id="&lt;Group&gt;">
				<path id="&lt;Path&gt;" class="s11" d="m618.9 213.6c-7.1-2.8-15.2 1.1-15.2 1.1l25.9 9.8c0 0-3.5-8.2-10.7-10.9z"/>
				<path id="&lt;Path&gt;" class="s4" d="m629.6 224.5l-25.9-9.8c0 0 3.5 8.2 10.6 11 7.2 2.7 15.3-1.2 15.3-1.2z"/>
			</g>
			<path id="&lt;Path&gt;" class="s1" d="m709.9 582.4h4v-158.2c0-1.1-0.9-2-2-2-1.1 0-2 0.9-2 2z"/>
			<path id="&lt;Path&gt;" class="s4" d="m663 588.1c0 0 18.5-22.3 33.4-16 15 6.4 17.4-5.1 25.2-1.3 7.8 3.8 17.6 13.3 17.6 13.3z"/>
			<g id="&lt;Group&gt;">
				<path id="&lt;Path&gt;" class="s2" d="m698.8 468.9c-4.3 0-9.2-1-14.5-3.8-0.5-0.2-0.7-0.8-0.4-1.3 0.2-0.5 0.8-0.7 1.3-0.4 16 8.5 27.6-0.5 28.1-0.9 0.4-0.4 1.1-0.3 1.4 0.1 0.3 0.4 0.3 1-0.2 1.4 0 0.1-6.2 4.9-15.7 4.9z"/>
			</g>
			<g id="&lt;Group&gt;">
				<path id="&lt;Compound Path&gt;" fill-rule="evenodd" class="s2" d="m685.4 465.4l-1.8-1.1c-1.3-0.7-12.8-7.7-13.1-13-0.1-1.3 0.4-2.4 1.4-3.2q2.9-2.3 5.5-1.3c5.6 2.2 7.5 15.1 7.7 16.6zm-9.6-17q-1.2 0-2.6 1.2c-0.6 0.4-0.8 0.9-0.8 1.6 0.2 3.1 6.5 7.8 10.4 10.3-0.8-4.4-2.9-11.6-6.1-12.9q-0.4-0.2-0.9-0.2z"/>
			</g>
			<g id="&lt;Group&gt;">
				<path id="&lt;Compound Path&gt;" fill-rule="evenodd" class="s2" d="m673.1 477.2c-0.7 0-1.7-0.3-2.4-1.5-0.6-1-0.7-2.1-0.3-3.2 1.6-4.2 10.7-7.4 11.8-7.8l2.4-0.8-1.3 2.2c-1 1.8-6.3 11-10.2 11.1q0 0 0 0zm7.1-9.6c-3.1 1.3-7.2 3.4-8 5.6-0.2 0.5-0.1 1 0.2 1.5 0.3 0.5 0.6 0.5 0.7 0.5 1.7 0 4.8-3.9 7.1-7.6z"/>
			</g>
			<path id="&lt;Path&gt;" class="s2" d="m686.2 463.9c0 0.9-0.7 1.7-1.6 1.7-1 0-1.7-0.8-1.7-1.7 0-0.9 0.7-1.7 1.7-1.7 0.9 0 1.6 0.8 1.6 1.7z"/>
			<path id="&lt;Path&gt;" class="s4" d="m1580 652.1l8.6-14.6-7.1-15.3c-0.8-1.8 0.7-3.7 2.6-3.3l16.5 3.7 12.4-11.5c1.4-1.3 3.7-0.4 3.9 1.5l1.6 16.9 14.8 8.2c1.7 0.9 1.6 3.4-0.2 4.2l-15.6 6.7-3.2 16.6c-0.4 1.9-2.8 2.5-4.1 1.1l-11.1-12.7-16.9 2c-1.9 0.2-3.2-1.8-2.2-3.5z"/>
			<filter id="f0">
				<feFlood flood-color="#55b061" flood-opacity="1" />
				<feBlend mode="normal" in2="SourceGraphic"/>
				<feComposite in2="SourceAlpha" operator="in" />
			</filter>
			<g id="&lt;Group&gt;" filter="url(#f0)">
				<g id="&lt;Group&gt;">
				</g>
				<g id="&lt;Group&gt;">
				</g>
				<g id="&lt;Group&gt;">
				</g>
				<g id="&lt;Group&gt;">
				</g>
				<g id="&lt;Group&gt;">
				</g>
				<g id="&lt;Group&gt;">
				</g>
				<g id="&lt;Group&gt;">
				</g>
				<g id="&lt;Group&gt;">
				</g>
			</g>
			<path id="&lt;Path&gt;" class="s1" d="m225.7 861.5l-0.1-19.3-16-10.8c-1.8-1.2-1.4-4 0.7-4.7l18.3-6.1 5.3-18.5c0.6-2.2 3.4-2.7 4.7-0.9l11.4 15.5 19.3-0.6c2.2-0.1 3.5 2.4 2.2 4.2l-11.2 15.6 6.6 18.2c0.7 2-1.2 4-3.3 3.4l-18.4-5.8-15.2 11.8c-1.7 1.4-4.2 0.1-4.3-2z"/>
			<g id="&lt;Group&gt;">
				<g id="&lt;Group&gt;">
				</g>
				<g id="&lt;Group&gt;">
				</g>
				<g id="&lt;Group&gt;">
				</g>
				<g id="&lt;Group&gt;">
				</g>
				<g id="&lt;Group&gt;">
				</g>
				<g id="&lt;Group&gt;">
				</g>
				<g id="&lt;Group&gt;">
				</g>
				<g id="&lt;Group&gt;">
				</g>
			</g>
			<path id="&lt;Path&gt;" class="s8" d="m326.3 1658.5h15.8v-836.3c0-4.4-3.6-7.9-7.9-7.9-4.4 0-7.9 3.5-7.9 7.9z"/>
			<path id="&lt;Path&gt;" class="s8" d="m432.7 1658.5h15.7v-850.5c0-4.3-3.5-7.9-7.8-7.9-4.4 0-7.9 3.6-7.9 7.9z"/>
			<path id="&lt;Path&gt;" class="s8" d="m445.9 914.4h-108.4v-9.4h108.4z"/>
			<path id="&lt;Path&gt;" class="s8" d="m445.9 1040.9h-108.4v-9.5h108.4z"/>
			<path id="&lt;Path&gt;" class="s8" d="m445.9 1167.3h-108.4v-9.4h108.4z"/>
			<path id="&lt;Path&gt;" class="s8" d="m445.9 1293.8h-108.4v-9.4h108.4z"/>
			<g id="&lt;Group&gt;">
				<path id="&lt;Path&gt;" class="s9" d="m367.7 1364.6h-68.3c-5.7 0-10.3 4.6-10.3 10.2v38.4h11.5v-36.4h67.1z"/>
				<path id="&lt;Path&gt;" class="s7" d="m380.8 1338.7l-21.2-22.4c0 0-22.7 12.5-49.1 24.4-7.3-12.6-19.2-54.2-19.8-56.2-0.6-2 13.9-27 10.7-27.7-3.3-0.6-7.5 13.4-11 12-3.4-1.4-12.2-33.9-14.3-32.1-3.9 3.3 4.6 20.2 2.6 21.4-2 1.2-7.2-18.7-11.2-17.8-3.9 0.8 6.7 18.1 5.5 19.8-1.1 1.6-12.2-14.6-14.5-10.8-1.2 2 10.2 14.1 7.9 15.4-2.4 1.4-12.7-6.2-13.9-3.8-1.3 2.5 9.6 5.1 12.6 11.3 3 6.2 8.5 8.7 10.3 20.5 1.8 11.7 6.8 74.8 19.7 79.9 11.2 4.4 85.7-33.9 85.7-33.9z"/>
				<g id="&lt;Group&gt;">
					<path id="&lt;Path&gt;" class="s13" d="m576.3 1629.3c1.7-11.9 1.6-33.8 0.7-57 10.4-0.5 19.2-1.2 29.5-1.8-4.3 29.5-7.2 60-7.2 60l0.7 5.8 0.4 17.4-58.7 0.4c0 0 12.4-5.5 29.7-16.3 1.3-0.8 4.2-3.4 4.9-8.5z"/>
					<path id="&lt;Path&gt;" class="s8" d="m602 1657.4l-61.9 0.7c-2.3-0.2-2.8-2-2-3.1 1.6-2.3 8.6-4 16.6-7.7 13.9 1.5 43.1-8 45.3-11.2 1.3 6.4 3.2 21 2 21.3z"/>
				</g>
				<g id="&lt;Group&gt;">
					<path id="&lt;Path&gt;" class="s13" d="m681.5 1617.1c-4.8-11-16.5-29.6-29.5-48.8 8.6-5.9 17-12 25.5-18 11.9 27.4 24.1 55.7 24.1 55.7l3.7 4.6 9.5 14.5-49.7 31.3c0 0 7.7-11.2 16.7-29.5 0.6-1.4 1.8-5.1-0.3-9.8z"/>
					<path id="&lt;Path&gt;" class="s8" d="m717.4 1628.7l-51.5 32c-2 1-3.5-0.3-3.4-1.6 0.2-2.8 5.3-8 10.1-15.3 12.6-6.1 32.3-29.7 32.4-33.6 4.5 4.8 13.3 17.6 12.4 18.5z"/>
				</g>
				<path id="&lt;Compound Path&gt;" class="s8" d="m657.4 1133.6c4.5-22.4-9.9-44.6-30-52.9 0.1-12.7-4-28.9-12.7-37.6-17.2-17.2-49.9-23.2-62.5-1.3-16.7 9.4-29.8 29.8-24.9 48.4-16.1 16.8-10 47 13.6 61.3-0.4 18.8 9.5 37.5 25.9 45.5 4 1.9 10.1 4.6 10.9 5.4-1-1 12.2 35.8 53.1 19 41.8-17.2 53.8-65.4 26.6-87.8z"/>
				<path id="&lt;Path&gt;" class="s9" d="m575.2 1612.5c5.1-28.2-12.5-98.1-23.3-128.8-11.2-32-18.3-167.3-18.3-167.3l12.7-14.8 51.8-3.1c0 0-22.1 67.7-22.1 91 0 23.3 10.8 83.4 23.4 114.7 11.6 28.8 6.8 89.3 3.3 109.2-9.4 1.5-18.3 1-27.5-0.9z"/>
				<path id="&lt;Path&gt;" class="s1" d="m611.2 1304.8c2.4 2.3 16.3 18.8 16.3 30.4 0 11.5-26.2 115.3-19.9 121.6 6.3 6.3 29.6 22 44.4 44 12.6 18.4 41.3 71.9 46.8 84.6-10.8 7.5-20.2 11-31.1 14.6-1.7-9.5-86.6-103-96.3-122.6-9.7-19.6-15-109-19.9-120.9-4.9-11.9-17.9-42.1-17.9-42.1z"/>
				<path id="&lt;Path&gt;" class="s13" d="m535.6 1228.3c0 0-32 36.5-67.4 50.2-5.6 2.2-10.3 6.4-10.3 6.4 0 3.7 6.6 1 6.6 1 0 0-2.2 3.6-1 8.1 1.1 4.4 8.8 1.5 13 1.5 2 0 11.8-11.1 25.2-17.6 15.8-7.7 34.4-15.2 36.7-17.5 4.2-4.2-1.6-33.5-2.8-32.1z"/>
				<path id="&lt;Path&gt;" class="s4" d="m600.7 1125.5c0 0-32.2-3.3-49 7.5-16.8 10.7-27.6 48.9-27.6 65.2 0 16.3 12.1 102 7.5 118.3 0 0 53.2-2.3 71.4-2.3 18.2 0 21.9-7 21.9-7 0 0-37.8-37.3-37.8-53.6 0-16.3 13.6-128.1 13.6-128.1z"/>
				<g id="&lt;Group&gt;">
					<path id="&lt;Compound Path&gt;" fill-rule="evenodd" class="s9" d="m186.7 1536.5h20.3v-64.2h6v31.9h40v-56.9c0-22.4 19.5-42.1 41.7-42.1h52v9.9h-52c-18.7 0-32.6 17-32.6 32.2v56.9h60.5v9.9h-109.6v22.4h8.3v6.6h-8.3v20.1h8.3v6.6h-8.3v17.5c15.5 1.6 27.6 15.9 27.6 33.3 0 18.5-13.7 33.5-30.6 33.5-16.9 0-30.6-15-30.6-33.5 0-17.4 12.1-31.7 27.6-33.3v-17.5h-40v50.8h-6.1v-55.8c0-15.6 11.6-28.3 25.8-28.3zm20.3 6.6h-20.3c-10.4 0-19 8.9-19.7 20.1h40z"/>
					<path id="&lt;Path&gt;" class="s14" d="m184.6 1573.5c0 0 1.3 21.6 1.3 21.6 0.4 2.7 2.2 9.5 2.2 12 0 9.3-41.6-7.9-32.3-12.1 0.9-0.4 5.7-5.5 6.9-8.5 2.1-5.2 3.1-15.6 3.1-15.6z"/>
					<path id="&lt;Path&gt;" class="s8" d="m155.9 1594.9c0 0 9.8 2.9 14.8 3.6 5 0.7 11.6-5.3 15.1-3.7 3.9 1.8 4.1 18.2 4.1 18.2 0 0-52.2 1.8-67.4-0.5-6-0.8 13.5-10.9 33.4-17.6z"/>
					<g id="&lt;Group&gt;">
						<path id="&lt;Path&gt;" class="s9" d="m392.6 1527.5h11.5v-218.7c0-7.3 7.2-13.3 16.1-13.3h103.3c2.7 0 5-2.2 5-4.8 0-2.6-2.3-4.8-5-4.8h-103.3c-15.2 0-27.6 10.3-27.6 22.9z"/>
					</g>
					<g id="&lt;Group&gt;">
						<path id="&lt;Path&gt;" class="s9" d="m338.8 1481.6c38.3 0 69.3 31.3 69.3 69.9 0 38.6-31 69.9-69.3 69.9-38.2 0-69.2-31.3-69.2-69.9 0-38.6 31-69.9 69.2-69.9z"/>
						<path id="&lt;Compound Path&gt;" fill-rule="evenodd" class="s9" d="m338.8 1466.4c46.6 0 84.4 38.1 84.4 85.1 0 47-37.8 85.1-84.4 85.1-46.6 0-84.3-38.1-84.3-85.1 0-47 37.7-85.1 84.3-85.1zm0 162.2c42.2 0 76.4-34.5 76.4-77.1 0-42.5-34.2-77-76.4-77-42.1 0-76.3 34.5-76.3 77 0 42.6 34.2 77.1 76.3 77.1z"/>
					</g>
					<path id="&lt;Path&gt;" class="s9" d="m394.2 1454.6h33.9v-131.3h-33.9z"/>
					<g id="&lt;Group&gt;">
						<path id="&lt;Path&gt;" class="s1" d="m283 1536.5h-28.6c-15.5 0-28.1 12.7-28.1 28.3v55.8h6.6v-55.8c0-12 9.6-21.7 21.5-21.7h28.6z"/>
					</g>
					<path id="&lt;Path&gt;" class="s9" d="m271.2 1463h-89.1v15.3h89.1z"/>
					<g id="&lt;Group&gt;">
						<path id="&lt;Path&gt;" class="s1" d="m282.6 1563.2h-53v6.6h53z"/>
					</g>
					<g id="&lt;Group&gt;">
						<path id="&lt;Path&gt;" class="s1" d="m279.7 1514.1h122.2v-9.9h-122.2z"/>
					</g>
					<path id="&lt;Path&gt;" class="s9" d="m428.1 1462.8h-159.1v15.5h159.1z"/>
					<g id="&lt;Group&gt;">
						<path id="&lt;Path&gt;" class="s1" d="m423.2 1539.2h9.8v-218.7c0-7.3 6.2-13.3 13.8-13.3h92.8v-9.6h-92.8c-13 0-23.6 10.3-23.6 22.9z"/>
					</g>
					<path id="&lt;Path&gt;" class="s9" d="m242.7 1620.6c0 18.5 16.6 33.5 37 33.5 20.4 0 36.9-15 36.9-33.5 0-18.5-16.5-33.5-36.9-33.5-20.4 0-37 15-37 33.5z"/>
					<path id="&lt;Path&gt;" class="s1" d="m257.2 1620.6c0 11.3 10 20.4 22.5 20.4 12.4 0 22.4-9.1 22.4-20.4 0-11.3-10-20.4-22.4-20.4-12.5 0-22.5 9.1-22.5 20.4z"/>
					<path id="&lt;Path&gt;" class="s11" d="m189.6 1405.2c10.7-10.7 159.5-5.5 159.5-5.5 0 0-126.1 30.7-133.4 34.7-7.4 4.1-34.8 139.5-34.8 141.2-7.6-1.8-12.3-0.4-20-2 1.2-23.5 11.5-151.2 28.7-168.4z"/>
					<path id="&lt;Path&gt;" class="s7" d="m204.1 1574.2c0 0 1.2 21.5 1.2 21.6 0.5 2.7 2.2 9.5 2.2 11.9 0 9.4-41.5-7.9-32.2-12 0.8-0.4 6.6-5.3 6.8-8.5 0.5-4.9 0.2-12.7 0.2-12.7z"/>
					<path id="&lt;Path&gt;" class="s8" d="m175.4 1595.6c0 0 9.8 2.8 14.8 3.6 4.9 0.7 11.5-5.3 15.1-3.7 3.9 1.8 4.1 18.2 4.1 18.2 0 0-52.2 1.7-67.4-0.5-6.1-0.9 13.5-11 33.4-17.6z"/>
					<path id="&lt;Path&gt;" class="s4" d="m372.3 1430.2c0 0-1.3 33.8-12.5 34.2-11.3 0.4-83.4 2-124.1-1.6l-27.3 120.9-32.1-3.1c0 0 9.6-80.8 13.1-111.5 3.4-30.2 13.1-55.5 30.2-56.1 17.1-0.6 129.3-18 129.3-18z"/>
					<path id="&lt;Path&gt;" class="s2" d="m402.6 1272.5c0 0 18.2 4.6 15.7 40.2-2.4 35.6-22.1 143.3-58.5 151.7-36.4 8.5-60.1-68.2-60.1-68.2 0 0 22.9-7.5 32.5-43.1 6.6-24.7 24.4-80.4 28.8-83.1 11.1-6.6 41.6 2.5 41.6 2.5z"/>
					<path id="&lt;Path&gt;" class="s1" d="m326.3 1511.8h9.8v-64.5c0-15.2 15.2-32.2 35.5-32.2h56.5v-9.9h-56.5c-24.1 0-45.3 19.7-45.3 42.1z"/>
					<path id="&lt;Path&gt;" class="s1" d="m348.5 1560.8c0 44.3 35.7 80.2 79.6 80.2 43.9 0 79.5-35.9 79.5-80.2 0-44.4-35.6-80.3-79.5-80.3-43.9 0-79.6 35.9-79.6 80.3z"/>
					<path id="&lt;Compound Path&gt;" fill-rule="evenodd" class="s1" d="m428.1 1463c53.5 0 96.9 43.8 96.9 97.8 0 53.9-43.4 97.7-96.9 97.7-53.5 0-96.9-43.8-96.9-97.7 0-54 43.4-97.8 96.9-97.8zm0 186.2c48.4 0 87.7-39.6 87.7-88.4 0-48.9-39.3-88.5-87.7-88.5-48.4 0-87.7 39.6-87.7 88.5 0 48.8 39.3 88.4 87.7 88.4z"/>
					<path id="&lt;Path&gt;" class="s9" d="m362.5 1560.8c0 36.5 29.4 66.2 65.6 66.2 36.2 0 65.6-29.7 65.6-66.2 0-36.6-29.4-66.2-65.6-66.2-36.2 0-65.6 29.6-65.6 66.2z"/>
					<path id="&lt;Path&gt;" class="s9" d="m413.3 1560.8c0 8.2 6.6 14.8 14.8 14.8 8.1 0 14.8-6.6 14.8-14.8 0-8.3-6.7-14.9-14.8-14.9-8.2 0-14.8 6.6-14.8 14.9z"/>
					<path id="&lt;Path&gt;" class="s9" d="m135.5 1630.8h100.1v-17.4h-100.1z"/>
					<path id="&lt;Path&gt;" class="s9" d="m178.8 1630.8h56.8v-17.4h-56.8z"/>
					<g id="&lt;Group&gt;">
						<path id="&lt;Path&gt;" class="s1" d="m276.4 1630.8h6.5v-152.7h-6.5z"/>
					</g>
					<path id="&lt;Path&gt;" class="s9" d="m275.8 1622.6c0 2.2 1.8 4 4 4 2.2 0 4.1-1.8 4.1-4 0-2.3-1.9-4.1-4.1-4.1-2.2 0-4 1.8-4 4.1z"/>
					<g id="&lt;Group&gt;">
						<path id="&lt;Path&gt;" class="s2" d="m391.6 1177.2c0 0 12.7-8.6 18.1 6.5 0-0.1 4.5-0.1 5.2 0.1 2.6 0.9 5.1 3.7 7.5 5.2 8.3 5.3 12.1 15.7 12.6 25.2 0.5 11.5-4.2 20-11.8 28.3-2.3 2.5-4.7 4.9-7.6 6.5-3.5 1.9-6.3 0.4-9.6 1.2-2.8 0.6-3.8 3.6-7.1 2.5-4.7-1.5-9.5-7.3-15.3-6.4-5.7 0.9-18.9-4.3-18.9-4.3-17-6.6-5.6-39.5-2.3-51.2 3.1-11 18.7-17.5 29.2-13.6z"/>
						<path id="&lt;Path&gt;" class="s7" d="m376.2 1252l-4.4 12-2.4 6.8c0 0-0.1 12 2.7 15.1 4.8 5.4 24.7-14.5 24.7-14.5l6.3-37.9z"/>
						<path id="&lt;Path&gt;" class="s10" d="m401.1 1245.8c-7.6 11.7-20.6 17.1-29.3 18.3l4.4-12.1 26.9-18.5z"/>
						<path id="&lt;Path&gt;" class="s7" d="m397.9 1194.6c-10.1-6.2-23.4-1.5-27.6 9.4-1.8 4.8-3.8 10.8-5.4 17.5-3.9 16.2 1 33.9 8.4 35.5 7.4 1.6 30.1-4.4 35.9-27.3 3.6-14.1-0.6-28.6-11.3-35.1z"/>
						<path id="&lt;Path&gt;" class="s7" d="m403.4 1230.3c-0.8 3.6 0.9 7 3.9 7.7 2.9 0.6 5.9-1.7 6.7-5.3 0.8-3.6-1-7-3.9-7.7-2.9-0.6-5.9 1.8-6.7 5.3z"/>
						<path id="&lt;Path&gt;" class="s2" d="m380.6 1237c0 0 9.7 3.2 10.5 6.8 0.8 3.6-0.4 8.7-5.1 12.7-4.8 3.9-15 1.5-17.8-0.7-2.7-2.2-4.9-11.4-2.1-16.6 2.8-5.1 14.5-2.2 14.5-2.2z"/>
						<path id="&lt;Path&gt;" class="s7" d="m383.8 1244.5c0 0-0.1 4-1.4 4.7-1.3 0.7-2.9 1.3-4.4 1.4-2.5 0.3-4.7-0.8-6-2.7q-0.2-0.2-0.3-0.5c-1-2-1.2-5.5-1.2-5.5 0 0 4.1-1 6.5-0.6 2.3 0.4 6.8 3.2 6.8 3.2z"/>
					</g>
				</g>
				<path id="&lt;Path&gt;" class="s13" d="m488.9 1290.9c3.8-3.8 21.7-9.8 35.2-19.6 6-4.3 17.5-10 28.7-16.2 8.2 4.6 15.6 10.2 21.1 17.1-20.2 9.3-42.2 18.6-45.6 22-6.3 6.3-17.2 20.5-19.8 20.5-2.6 0-22.1-5.7-25-8.7-2.9-2.9 1.5-11.3 5.4-15.1z"/>
				<path id="&lt;Path&gt;" class="s4" d="m552.8 1255.1c14.1-7.8 27.8-16.4 29.2-24.1 2.6-13.7-9.1-73.1-2.6-84.5 6.6-11.4 21.3-21 21.3-21 2.3 0 10.7 5.1 13 15.4 2.4 10.2-1.8 102.5-4.2 110.9-1.1 3.9-17 19.6-35 27.8-5.5-6.8-13.5-19.9-21.7-24.5z"/>
				<path id="&lt;Path&gt;" class="s7" d="m407.3 1379.5l-56.3 14.8c0 0-16.5 11.9-24 14.3-7.4 2.4-16.5 10.6-14.8 13.1 1.8 2.5 11.2-6 12.7-5.8 1.5 0.3-5.5 10.4-6.6 17-1.2 6.7-3.4 13.1 0.4 12.6 3.8-0.5 6.5-15.5 6.5-15.5 0 0 5.9-11.3 6.8-9.9 1 1.3-3.9 9.1-3.9 9.1 0 0-1.1 8.3-1.6 11.3-0.4 2.2 1.6 8.8 3.3 6.4 1-1.5 0.6-6.9 1.7-10 2.5-6.4 6.4-11.5 6.4-11.5 0 0-4.2 19.1-1.6 19.6 2.7 0.5 5.4-15.4 5.4-15.4 0 0 6.5-13.2 9.4-14.3 2.8-1.2 10.6-6.2 16.6-8.3 6.1-2.1 31 4.8 42.1 4.9 11.1 0.2 29.2-6.7 30.7-15.4 0.4-2.7-1.2-5.7-3.8-8.5-7.3-8.1-18.7-11.2-29.4-8.5z"/>
				<path id="&lt;Path&gt;" class="s0" d="m402.6 1272.5c0 0 17-3 32.4 24.7 15.5 27.8 5.5 99.3 5.5 99.3l-33.2-17z"/>
				<path id="&lt;Path&gt;" class="s13" d="m478.5 1296.4c-2 0-12.5 0.7-14.2-0.9-1.6-1.7 5.4-5.9 6.2-5.2 0.7 0.7 3.7-0.8 4.7 0.2 1 1 4-0.2 4.8 0.7 0.9 0.8 0.5 5.2-1.5 5.2z"/>
				<path id="&lt;Path&gt;" class="s13" d="m583.9 1096.8c0 0-3.5 19.7-2.8 27.4 0.7 7.8-2.8 32.9-18.2 33-15.5 0.1-5-26.1-3.5-33.7 1.4-7.6 3.8-37 3.8-37z"/>
				<path id="&lt;Path&gt;" class="s15" d="m562.2 1097.6c0.3-6.4 1.4-11.5 1.4-11.5l20.3 10.7c0 0-0.7 4-1.4 9.1-9.1 2-16.3-2.3-20.3-8.3z"/>
				<path id="&lt;Path&gt;" class="s13" d="m584.4 1039.5c0 0 8.7 3.1 13.5 12.6 4.7 9.5 6.3 36-12.9 46.2-19.1 10.2-31.7-8.6-30.5-25.4 1.1-16.9 6.4-39 29.9-33.4z"/>
				<path id="&lt;Path&gt;" class="s13" d="m548.8 1068.2c-0.5 4.3 1 8.1 3.4 8.3 2.4 0.2 4.8-3.1 5.3-7.5 0.5-4.4-1-8.1-3.5-8.3-2.4-0.3-4.7 3.1-5.2 7.5z"/>
				<path id="&lt;Path&gt;" class="s13" d="m596.2 1075.5c-1.7 4.2-0.9 8.7 1.8 9.9 2.8 1.3 6.3-1.1 8-5.4 1.7-4.2 0.9-8.6-1.9-9.9-2.7-1.2-6.2 1.2-7.9 5.4z"/>
			</g>
			<g id="&lt;Group&gt;">
				<path id="&lt;Path&gt;" class="s9" d="m1464.3 378.1l37.4 51.3 24.7-27.1z"/>
				<path id="&lt;Path&gt;" class="s1" d="m1529.8 388.2l-3.4 14.1-62.1-24.2z"/>
				<path id="&lt;Path&gt;" class="s1" d="m1526.4 407.7l-62.1-29.6 57.7 51.3z"/>
				<path id="&lt;Compound Path&gt;" fill-rule="evenodd" class="s2" d="m1564.1 469.2c-0.4-0.1-11.3-1.2-25.2-9.8-13.9-8.6-19.1-23.7-19.1-26.2 0-0.9 0.8-1.6 1.7-1.6 0.9 0 1.7 0.7 1.7 1.6 0.1 1.6 4.6 15.3 17.5 23.4 13.1 8.1 23.7 9.2 23.8 9.3 0.9 0 1.6 0.9 1.5 1.8-0.1 0.9-0.9 1.6-1.9 1.5zm-40.9-36q0 0 0 0 0 0 0 0z"/>
				<path id="&lt;Path&gt;" class="s2" d="m1632 484.4c-19.3-3.9-37.9-11.1-55-21.3-14.2-8.4-25.6-21.2-40-28.3-0.8-0.5-1.2-1.5-0.7-2.3 0.4-0.8 1.4-1.2 2.2-0.8 14.9 7.4 26.2 20.2 40.2 28.5 16.8 10.1 35 17.1 54 20.9 7 1.4 15.2 1.9 24.6 1.5 0.9 0 1.7 0.7 1.7 1.6 0 0.9-0.7 1.7-1.6 1.7-8.3 0.4-17.2 0.1-25.4-1.5z"/>
			</g>
			<g id="&lt;Group&gt;">
				<g id="&lt;Group&gt;">
					<g id="&lt;Group&gt;">
						<path id="&lt;Path&gt;" class="s13" d="m885.2 1010.6c0 0-41.1-73.3-51.1-88.9-10-15.6-36-77.6-37-80-0.9-2.4 18-31.8 13.8-32.8-4.2-1-8.9 15.5-13.4 13.5-4.5-1.9-17.6-41.6-20.2-39.6-4.8 3.7 7.1 24.6 4.5 25.9-2.5 1.3-10.2-23-15.3-22.3-5 0.7 9.6 22.3 8.2 24.2-1.4 1.9-16.5-18.4-19.3-14.1-1.5 2.4 13.9 17.8 11 19.2-3 1.4-16.7-8.5-18.1-5.6-1.5 2.8 12.6 6.8 16.9 14.5 4.2 7.7 11.3 11 14.3 25.3 3 14.4 7.5 66.1 22.7 91.9 15.3 25.9 48.9 83 48.9 83z"/>
						<g id="&lt;Group&gt;">
							<path id="&lt;Path&gt;" class="s13" d="m1067.4 1364.6c0 0-3.4-4.1-4.4-5.6-1.2-1.7-4.3-7.2-4.3-7.2 0 0-10-19.5-8.5-20.1 1.5-0.6 5.1 1.8 6.1 2.7 1.1 1 2.4 2.1 3.4 3.1 1.1 1 2.7 1 4-0.2 1.3-1.2-2-6-3.5-7.5-4.6-4.5-19.2-14-20.7-15.1-1.8-1.3-12.9-38.3-17.8-50.7q0 0 0 0c-7.3-20.4-13.7-41.9-14.5-44l-4.6-93.1-34.7-11.5c0 0 3.6 103.3 4.4 108.4 0.4 2.5 20.9 48.6 21 48.6 11.5 22.1 21.8 41.6 23.6 45.3 0 0 2.6 12.9 3.7 21.1 1.1 8.3 5.5 15.5 6.1 17.7 0.1 0.4 2 8.3 7.8 16.6 4.9 7.1 3.5-2 3.5-2 0 0-6.8-14.8-5.6-15.2 1-0.2 4.2 8.1 9.6 16 1.4 2 2.8 4 4.1 5.9 3.3 4.8 7.2 4 4.5-1.6-0.9-1.9-2.6-5.2-4.1-7.3-1.6-2.3-2.4-5-3.5-7.2-2.1-4.2-3.7-7.3-3.5-7.3 0.3 0 0.5-1.2 2 0.9 1.8 2.6 4.6 8.9 7.6 12.4 1.7 2 5 6.4 5 6.4 0 0 6.1 6.5 6.6 6.2 2.5-1.4-0.6-7.3-3.3-9.7-0.9-2.4-4.5-7-4.5-7 0 0-5.2-10.8-3.7-11.6 1.2-0.6 18.8 22.8 21.2 21.2 1.9-1.3-3-8.6-3-8.6z"/>
						</g>
						<path id="&lt;Path&gt;" class="s8" d="m1005.2 1002.3c0.9-20.3-2.1-40.4-11.2-59.2-7.8-16.3-27.1-25.5-44.8-25.5-55.9-0.1-63 73.8-98.6 102.3-10.9 8.8-23.1 15.9-33.4 25.3-38 34.7-20.9 98.9 14 129.3 24.3 21.1 62.3 33.1 92.2 16.6 15.6-8.6 27.4-22.9 35.9-38.6 11.9-22.3 19.6-48 28.2-71.7 9-25.3 16.6-51.6 17.7-78.5z"/>
						<path id="&lt;Path&gt;" class="s13" d="m830.3 1655.5c0 0-3.9 27.2-10.7 36-2.3 3-6.5 6.7-9.2 12.1-4.2 8.3-1.9 20.7 1.3 27.5 1.6 3.5-0.2 3.5 3.5 4.6 10.9 3.4 22.4-2.3 27-12.6 2.6-5.8 4.9-13.6 5.3-23.3 1.2-24.8 8.9-37.4 8.9-37.4z"/>
						<path id="&lt;Path&gt;" class="s13" d="m949 1667.9c0 0 2.4 30.8 0.4 40.8-1 5.4-6.9 16.4-4.2 21.4 2.7 5.1 5.8 6.3 5.8 6.3l70 1.2c3.8 0 1.3-2.4-1.8-4.7-5-3.7-9.1-6.1-25.2-13.9-1-0.5-4.8-2.9-6.2-3.8-3.5-2.1-7-5.4-10-8.8-5-5.6-5.5-32.7-5.5-32.7z"/>
						<path id="&lt;Path&gt;" class="s8" d="m1003.7 1258.9c0 0 8.8 49.9 3 82.7-5.8 32.8-33.5 336.4-33.5 336.4l-30.9 1.7c0 0-6.5-126.8-5.4-144.4 1.2-17.7 10.4-47.2 10.4-47.2l-3.1-102.4 39-134.5z"/>
						<path id="&lt;Path&gt;" class="s8" d="m912.9 1248.4c0 0-24.3 36.5-30.1 66.7-5.8 30.3 4.3 123.2-6.9 162.8-6 21.5-28.9 54.6-32.3 82.3-3.5 27.7-17.1 100.3-17.1 100.3l30.8 6.1 71.8-181.3 56.3-163.9 14.4-84.4z"/>
						<path id="&lt;Path&gt;" class="s4" d="m932.6 1040.5c0 0-32.2-2.1-44.9 11.8-12.8 13.9 28.2 123.5 30.5 141.1 2.4 17.7-11.8 64.6-11.8 64.6 0 0 75.7 15.2 97.3 0.9 0 0 2.3-126.9 0-139.5-2.3-12.6-21.6-63.8-26.2-68.8-4.7-5.1-44.9-10.1-44.9-10.1z"/>
						<path id="&lt;Path&gt;" class="s13" d="m943.3 997.5c0 0-0.1 1-0.4 2.6-1.5 7.7-7 33.4-10.7 40.4-4.5 8.5 15.4 35.7 34.6 32.4 5.8-1-4.8-25-4.3-27.5 1-4.9 2.3-11.5 3.6-18.3 0.8-3.8 1.6-7.7 2.3-11.4 2.1-10.4 3.7-18.9 3.7-18.9z"/>
						<path id="&lt;Path&gt;" class="s15" d="m942.9 1000.1c0.3-1.6 0.4-2.6 0.4-2.6l28.8-0.7c0 0-1.6 8.5-3.7 18.9-0.7 3.6-1.5 7.5-2.2 11.3-4.5-0.6-9.1-2.8-13.8-6.9-5.1-4.4-8.4-9.7-10.4-15.4 0.3-1.8 0.6-3.4 0.9-4.6z"/>
						<path id="&lt;Path&gt;" class="s13" d="m962.7 932.2c0 0-13.6-1.5-22.1 9.4-8.5 11-17.6 45 3.5 63.4 21.1 18.5 42-2.4 45.1-24.6 3.1-22.1 4.3-49-26.5-48.2z"/>
						<path id="&lt;Path&gt;" class="s13" d="m995.5 980.1c-2.6 4.9-6.8 7.6-9.5 6.1-2.7-1.6-2.8-6.8-0.3-11.7 2.5-4.9 6.7-7.6 9.4-6 2.7 1.5 2.9 6.7 0.4 11.6z"/>
						<path id="&lt;Path&gt;" class="s8" d="m964.2 928.6c0 0-18.1 32.3-31.1 33.8-12.9 1.5-14.6 18.6-14.6 18.6 0 0 4.6-39.5 17.4-47.1 12.9-7.7 28.3-5.3 28.3-5.3z"/>
						<path id="&lt;Path&gt;" class="s8" d="m844.3 1717.6c-16.8 3.1-28-6.8-33.8-14.1-4.3 8.3-6.4 20.8-3.3 27.6 2.8 6 10.9 5.9 17.3 6.1 6.7 0.2 11.9-3.5 15.3-9.4 1.6-2.7 3.2-6.1 4.5-10.2z"/>
						<path id="&lt;Path&gt;" class="s8" d="m987.8 1715.2c-18.5 4.8-32.2 1.5-39.9-1.5-2 5.6-4.6 12.6-3.2 16.6 1.7 5 4.1 6.1 6.3 6.1 16.9 0.5 61.9 1.1 74.8 1.2 1.8 0.1 2.8-2 1.7-3.4-3.2-3.8-38.3-18.1-39.7-19z"/>
						<path id="&lt;Path&gt;" class="s13" d="m936.5 970.5c1.1 5.7-1 11-4.7 11.7-3.7 0.8-7.5-3.2-8.6-9-1-5.7 1.1-11 4.8-11.7 3.6-0.8 7.5 3.3 8.5 9z"/>
						<path id="&lt;Path&gt;" class="s4" d="m873.8 987.9c0 0 45.5 48.8 52.3 68.4 6.7 19.7-6.6 47.8-25.1 49-18.4 1.3-59.4-86.6-59.4-86.6z"/>
					</g>
				</g>
			</g>
			<g id="&lt;Group&gt;">
				<path id="&lt;Path&gt;" class="s1" d="m925.5 370.1l-51.4 11.2c-12.3 2.6-24.4-5.2-27.1-17.5l-4.8-22c-2.7-12.3 5.1-24.4 17.4-27.1l51.4-11.2c12.3-2.7 24.4 5.1 27.1 17.5l4.8 21.9c2.7 12.3-5.1 24.5-17.4 27.2z"/>
				<path id="&lt;Path&gt;" class="s1" d="m847.5 351.9l-22 35.5 33.7-14.5z"/>
				<g id="&lt;Group&gt;">
					<path id="&lt;Path&gt;" class="s16" d="m872.3 342l8.6-2.1c0 0 9-10.6 8.6-13.5-0.3-2.9-3.4-8.6-1.9-9.7 1.5-1.2 4.9-2.6 8 0.7 2.3 2.4 3.2 12.7 4.4 13.2 0.7 0.2 5.6-0.8 9.2-1.7 2.4-0.5 4.9 0.3 6.5 2.2 1.1 1.2 1.1 3 0.1 4.3l-1.6 2.1 2 1.6c1.5 1.3 1.7 3.5 0.4 4.9l-1.2 1.5 1.3 1c1.7 1.2 1.9 3.6 0.5 5.1l-1.1 1.3 0.3 0.3c1.1 1.4 1.1 3.4-0.1 4.7l-1.2 1.2-22.8 5.6c-2.1 0.5-4.4 0.6-6.5 0.2l-8.4 0.7c-0.9 0-1.7-0.6-1.9-1.5l-4.5-20c-0.3-0.9 0.3-1.9 1.3-2.1z"/>
				</g>
			</g>
			<g id="&lt;Group&gt;">
				<path id="&lt;Path&gt;" class="s2" d="m1086.2 109.8c46 8.6 79 38.4 73.7 66.7-2.6 14.1-14.3 25.2-31.1 31.6l10.9 45.1-33.2-39.7c-12.2 1.6-25.6 1.2-39.4-1.4-45.9-8.5-79-38.4-73.7-66.6 5.3-28.3 46.8-44.2 92.8-35.7z"/>
				<g id="&lt;Group&gt;">
					<path id="&lt;Path&gt;" class="s11" d="m1107.3 171.9c-7.1 14.7-24.7 20.9-39.4 13.8-14.7-7-20.9-24.7-13.9-39.4 7.1-14.7 24.7-20.8 39.4-13.8 14.7 7.1 20.9 24.7 13.9 39.4z"/>
					<path id="&lt;Path&gt;" class="s17" d="m1064.4 156.5c-3.8 7.9-0.5 17.3 7.4 21.1 7.8 3.7 17.3 0.4 21-7.4z"/>
				</g>
			</g>
			<g id="&lt;Group&gt;">
			</g>
		</g>
	</g>
</svg>